<svg width="373" height="62" viewBox="0 0 373 62" fill="none" xmlns="http://www.w3.org/2000/svg">
<path d="M25.9966 10.5882C14.1921 10.5882 4.58824 20.1921 4.58824 31.996C4.58824 43.8046 14.1921 53.4118 25.9966 53.4118C37.8046 53.4118 47.4118 43.8046 47.4118 31.996C47.4118 20.1914 37.8046 10.5882 25.9966 10.5882ZM36.9125 36.3458C36.9125 37.5436 36.8278 38.6486 36.3777 39.6288C35.9189 40.6055 35.3452 41.4587 34.5263 42.1728C33.7168 42.8748 32.7017 43.4385 31.5859 43.8489C30.7488 44.1553 30.1946 44.3816 28.8511 44.5247V47.8064H23.4768V44.4495C22.1332 44.2291 20.4947 43.865 19.1088 43.3652C17.424 42.76 15.8426 41.9458 14.4534 40.9461L13.6472 40.3738L17.8956 34.0913L18.7333 34.6898C19.7659 35.4248 20.7393 36.0213 21.7416 36.464C22.3253 36.7213 22.805 36.9342 23.4768 37.1015V34.9827C22.1332 34.6932 21.4137 34.3754 20.5082 34.0167C19.3655 33.5686 18.4129 33.005 17.6235 32.3439C16.81 31.6681 16.3263 30.8526 15.9024 29.9242C15.4826 29.0032 15.4147 27.9169 15.4147 26.6936V26.6244C15.4147 25.4649 15.4994 24.3833 15.9246 23.4092C16.3431 22.4351 16.9061 21.5632 17.7256 20.8229C18.521 20.1074 19.4817 19.5236 20.6217 19.0883C21.4863 18.7578 22.1325 18.5227 23.4761 18.3883V16.2319H28.8504V18.5254C30.1939 18.7161 31.2554 19.0097 32.2711 19.4C33.5569 19.8978 34.8172 20.532 35.9075 21.2844L36.721 21.8265L32.8267 28.2017L31.956 27.5837C31.2896 27.1148 30.5641 26.7164 29.8413 26.4014C29.5121 26.2589 29.5222 26.134 28.8504 26.0231V27.9169C30.1939 28.2071 31.0021 28.5376 31.8862 28.9044C33.0128 29.3753 33.9842 29.945 34.7507 30.5987C35.5635 31.2899 36.0438 32.1202 36.4469 33.0648C36.846 34.0066 36.9111 35.0855 36.9111 36.2719V36.3458H36.9125Z" fill="white"/>
<path d="M33.7457 32.1141C33.1414 31.5958 32.3663 31.1352 31.4419 30.7465C30.468 30.3403 29.2827 29.9777 27.97 29.6709L27.1709 29.4896V23.4012L28.4216 23.6872C29.242 23.8779 30.1072 24.1639 30.9676 24.5372C31.4939 24.7688 32.0155 25.0354 32.5157 25.3362L34.2993 22.4135C33.565 21.9717 32.7826 21.5883 31.9595 21.2667C30.8602 20.8417 29.5102 20.547 28.1688 20.3912L27.1723 20.2885V18.2353H25.8383V20.2281L24.8944 20.2932C23.6898 20.3778 22.6039 20.6014 21.6787 20.9579C20.7769 21.3043 20.0105 21.7575 19.4062 22.3061C18.8092 22.8486 18.4811 23.4838 18.1776 24.1948C17.8641 24.9186 17.8341 25.729 17.8341 26.6085V26.6777C17.8341 27.6096 17.8547 28.4146 18.1522 29.0706C18.4504 29.7293 18.8146 30.2879 19.4009 30.778C20.0212 31.3011 20.7763 31.7529 21.7121 32.1222C22.7093 32.5203 23.8125 32.8796 25.1379 33.1924L25.8383 33.3744V39.5366L24.721 39.3299C23.5544 39.1244 22.4331 38.7732 21.3339 38.2858C20.4921 37.9118 19.6517 37.4438 18.7972 36.8892L16.8235 39.8341C17.8394 40.478 18.9506 41.0185 20.1293 41.4441C21.6541 41.9987 23.2456 42.3553 24.8984 42.5365L25.8383 42.6346V45.7647H27.1723V42.6883L28.1568 42.6037C29.2707 42.5009 30.3439 42.2747 31.2731 41.9329C32.1496 41.608 32.928 41.1682 33.547 40.629C34.1473 40.102 34.4894 39.4715 34.8223 38.7585C35.1438 38.0521 35.1765 37.231 35.1765 36.3253V36.2521C35.1765 35.3376 35.1711 34.5239 34.881 33.8343C34.6028 33.181 34.3154 32.6016 33.7457 32.1141ZM25.8369 29.4144L24.645 29.0686C23.5264 28.7631 22.9347 28.4334 22.4938 28.0306C21.9729 27.5485 21.8342 26.9026 21.8342 26.1573V26.0875C21.8342 25.3389 22.0383 24.6748 22.6132 24.1666C23.1435 23.7046 23.8005 23.4381 24.8737 23.3488L25.8362 23.2588L25.8369 29.4144ZM28.2862 39.5434L27.1716 39.6595V33.3959L28.455 33.7591C29.5322 34.0666 30.2472 34.4043 30.6928 34.8213C31.2164 35.3128 31.4899 35.9634 31.4899 36.7046C31.4899 37.6809 31.071 39.2506 28.2862 39.5434Z" fill="white"/>
<circle cx="26" cy="32" r="25" stroke="white" stroke-width="2"/>
<path d="M75.318 45.358C76.67 45.358 77.8747 45.1327 78.932 44.682C80.0067 44.2313 80.908 43.5987 81.636 42.784C82.364 41.9693 82.9187 40.9813 83.3 39.82C83.6987 38.6587 83.898 37.3587 83.898 35.92V13.404H90.892V35.92C90.892 38.156 90.528 40.2273 89.8 42.134C89.0893 44.0233 88.058 45.6613 86.706 47.048C85.3713 48.4173 83.742 49.492 81.818 50.272C79.894 51.0347 77.7273 51.416 75.318 51.416C72.8913 51.416 70.716 51.0347 68.792 50.272C66.868 49.492 65.23 48.4173 63.878 47.048C62.5433 45.6613 61.512 44.0233 60.784 42.134C60.0733 40.2273 59.718 38.156 59.718 35.92V13.404H66.712V35.894C66.712 37.3327 66.9027 38.6327 67.284 39.794C67.6827 40.9553 68.246 41.952 68.974 42.784C69.7193 43.5987 70.6207 44.2313 71.678 44.682C72.7527 45.1327 73.966 45.358 75.318 45.358ZM130.474 13.404V51H126.886C126.331 51 125.863 50.9133 125.482 50.74C125.118 50.5493 124.762 50.2373 124.416 49.804L104.786 24.74C104.89 25.884 104.942 26.9413 104.942 27.912V51H98.7798V13.404H102.446C102.74 13.404 102.992 13.4213 103.2 13.456C103.425 13.4733 103.616 13.5253 103.772 13.612C103.945 13.6813 104.11 13.794 104.266 13.95C104.422 14.0887 104.595 14.2793 104.786 14.522L124.494 39.69C124.442 39.0833 124.398 38.4853 124.364 37.896C124.329 37.3067 124.312 36.7607 124.312 36.258V13.404H130.474ZM169.628 36.804L165.052 24.298C164.827 23.7433 164.593 23.0847 164.35 22.322C164.107 21.5593 163.865 20.736 163.622 19.852C163.397 20.736 163.163 21.568 162.92 22.348C162.677 23.1107 162.443 23.778 162.218 24.35L157.668 36.804H169.628ZM181.978 51H176.57C175.963 51 175.469 50.8527 175.088 50.558C174.707 50.246 174.421 49.8647 174.23 49.414L171.422 41.744H155.848L153.04 49.414C152.901 49.8127 152.633 50.1767 152.234 50.506C151.835 50.8353 151.341 51 150.752 51H145.292L160.086 13.404H167.21L181.978 51ZM217.564 13.404V51H210.544V34.568H192.89V51H185.87V13.404H192.89V29.576H210.544V13.404H217.564ZM261.79 32.202C261.79 34.958 261.331 37.5147 260.412 39.872C259.511 42.212 258.228 44.24 256.564 45.956C254.9 47.672 252.898 49.0153 250.558 49.986C248.218 50.9393 245.618 51.416 242.758 51.416C239.915 51.416 237.324 50.9393 234.984 49.986C232.644 49.0153 230.633 47.672 228.952 45.956C227.288 44.24 225.997 42.212 225.078 39.872C224.159 37.5147 223.7 34.958 223.7 32.202C223.7 29.446 224.159 26.898 225.078 24.558C225.997 22.2007 227.288 20.164 228.952 18.448C230.633 16.732 232.644 15.3973 234.984 14.444C237.324 13.4733 239.915 12.988 242.758 12.988C244.665 12.988 246.459 13.2133 248.14 13.664C249.821 14.0973 251.364 14.7213 252.768 15.536C254.172 16.3333 255.429 17.3127 256.538 18.474C257.665 19.618 258.618 20.9007 259.398 22.322C260.178 23.7433 260.767 25.286 261.166 26.95C261.582 28.614 261.79 30.3647 261.79 32.202ZM254.64 32.202C254.64 30.1393 254.363 28.2933 253.808 26.664C253.253 25.0173 252.465 23.622 251.442 22.478C250.419 21.334 249.171 20.4587 247.698 19.852C246.242 19.2453 244.595 18.942 242.758 18.942C240.921 18.942 239.265 19.2453 237.792 19.852C236.336 20.4587 235.088 21.334 234.048 22.478C233.025 23.622 232.237 25.0173 231.682 26.664C231.127 28.2933 230.85 30.1393 230.85 32.202C230.85 34.2647 231.127 36.1193 231.682 37.766C232.237 39.3953 233.025 40.782 234.048 41.926C235.088 43.0527 236.336 43.9193 237.792 44.526C239.265 45.1327 240.921 45.436 242.758 45.436C244.595 45.436 246.242 45.1327 247.698 44.526C249.171 43.9193 250.419 43.0527 251.442 41.926C252.465 40.782 253.253 39.3953 253.808 37.766C254.363 36.1193 254.64 34.2647 254.64 32.202ZM279.294 31.292C280.611 31.292 281.755 31.1273 282.726 30.798C283.714 30.4687 284.52 30.018 285.144 29.446C285.785 28.8567 286.262 28.1633 286.574 27.366C286.886 26.5687 287.042 25.6933 287.042 24.74C287.042 22.8333 286.409 21.3687 285.144 20.346C283.896 19.3233 281.981 18.812 279.398 18.812H274.926V31.292H279.294ZM297.286 51H290.968C289.772 51 288.905 50.532 288.368 49.596L280.464 37.558C280.169 37.1073 279.84 36.7867 279.476 36.596C279.129 36.4053 278.609 36.31 277.916 36.31H274.926V51H267.932V13.404H279.398C281.946 13.404 284.13 13.6727 285.95 14.21C287.787 14.73 289.287 15.4667 290.448 16.42C291.627 17.3733 292.493 18.5173 293.048 19.852C293.603 21.1693 293.88 22.6253 293.88 24.22C293.88 25.4853 293.689 26.6813 293.308 27.808C292.944 28.9347 292.407 29.9573 291.696 30.876C291.003 31.7947 290.136 32.6007 289.096 33.294C288.073 33.9873 286.903 34.5333 285.586 34.932C286.037 35.192 286.453 35.504 286.834 35.868C287.215 36.2147 287.562 36.6307 287.874 37.116L297.286 51ZM312.708 31.292C314.025 31.292 315.169 31.1273 316.14 30.798C317.128 30.4687 317.934 30.018 318.558 29.446C319.199 28.8567 319.676 28.1633 319.988 27.366C320.3 26.5687 320.456 25.6933 320.456 24.74C320.456 22.8333 319.823 21.3687 318.558 20.346C317.31 19.3233 315.395 18.812 312.812 18.812H308.34V31.292H312.708ZM330.7 51H324.382C323.186 51 322.319 50.532 321.782 49.596L313.878 37.558C313.583 37.1073 313.254 36.7867 312.89 36.596C312.543 36.4053 312.023 36.31 311.33 36.31H308.34V51H301.346V13.404H312.812C315.36 13.404 317.544 13.6727 319.364 14.21C321.201 14.73 322.701 15.4667 323.862 16.42C325.041 17.3733 325.907 18.5173 326.462 19.852C327.017 21.1693 327.294 22.6253 327.294 24.22C327.294 25.4853 327.103 26.6813 326.722 27.808C326.358 28.9347 325.821 29.9573 325.11 30.876C324.417 31.7947 323.55 32.6007 322.51 33.294C321.487 33.9873 320.317 34.5333 319 34.932C319.451 35.192 319.867 35.504 320.248 35.868C320.629 36.2147 320.976 36.6307 321.288 37.116L330.7 51ZM370.106 32.202C370.106 34.958 369.647 37.5147 368.728 39.872C367.827 42.212 366.544 44.24 364.88 45.956C363.216 47.672 361.214 49.0153 358.874 49.986C356.534 50.9393 353.934 51.416 351.074 51.416C348.232 51.416 345.64 50.9393 343.3 49.986C340.96 49.0153 338.95 47.672 337.268 45.956C335.604 44.24 334.313 42.212 333.394 39.872C332.476 37.5147 332.016 34.958 332.016 32.202C332.016 29.446 332.476 26.898 333.394 24.558C334.313 22.2007 335.604 20.164 337.268 18.448C338.95 16.732 340.96 15.3973 343.3 14.444C345.64 13.4733 348.232 12.988 351.074 12.988C352.981 12.988 354.775 13.2133 356.456 13.664C358.138 14.0973 359.68 14.7213 361.084 15.536C362.488 16.3333 363.745 17.3127 364.854 18.474C365.981 19.618 366.934 20.9007 367.714 22.322C368.494 23.7433 369.084 25.286 369.482 26.95C369.898 28.614 370.106 30.3647 370.106 32.202ZM362.956 32.202C362.956 30.1393 362.679 28.2933 362.124 26.664C361.57 25.0173 360.781 23.622 359.758 22.478C358.736 21.334 357.488 20.4587 356.014 19.852C354.558 19.2453 352.912 18.942 351.074 18.942C349.237 18.942 347.582 19.2453 346.108 19.852C344.652 20.4587 343.404 21.334 342.364 22.478C341.342 23.622 340.553 25.0173 339.998 26.664C339.444 28.2933 339.166 30.1393 339.166 32.202C339.166 34.2647 339.444 36.1193 339.998 37.766C340.553 39.3953 341.342 40.782 342.364 41.926C343.404 43.0527 344.652 43.9193 346.108 44.526C347.582 45.1327 349.237 45.436 351.074 45.436C352.912 45.436 354.558 45.1327 356.014 44.526C357.488 43.9193 358.736 43.0527 359.758 41.926C360.781 40.782 361.57 39.3953 362.124 37.766C362.679 36.1193 362.956 34.2647 362.956 32.202Z" fill="white"/>
</svg>
