<svg width="52" height="52" viewBox="0 0 52 52" fill="none" xmlns="http://www.w3.org/2000/svg">
<path d="M25.9966 4.58823C14.1921 4.58823 4.58824 14.1921 4.58824 25.996C4.58824 37.8046 14.1921 47.4118 25.9966 47.4118C37.8046 47.4118 47.4118 37.8046 47.4118 25.996C47.4118 14.1914 37.8046 4.58823 25.9966 4.58823ZM36.9125 30.3458C36.9125 31.5436 36.8278 32.6486 36.3777 33.6288C35.9189 34.6055 35.3452 35.4587 34.5263 36.1728C33.7168 36.8748 32.7017 37.4385 31.5859 37.8489C30.7488 38.1553 30.1946 38.3816 28.8511 38.5247V41.8064H23.4768V38.4495C22.1332 38.2291 20.4947 37.865 19.1088 37.3652C17.424 36.76 15.8426 35.9458 14.4534 34.9461L13.6472 34.3738L17.8956 28.0913L18.7333 28.6898C19.7659 29.4248 20.7393 30.0213 21.7416 30.464C22.3253 30.7213 22.805 30.9342 23.4768 31.1015V28.9827C22.1332 28.6932 21.4137 28.3754 20.5082 28.0167C19.3655 27.5686 18.4129 27.005 17.6235 26.3439C16.81 25.6681 16.3263 24.8526 15.9024 23.9242C15.4826 23.0032 15.4147 21.9169 15.4147 20.6936V20.6244C15.4147 19.4649 15.4994 18.3833 15.9246 17.4092C16.3431 16.4351 16.9061 15.5632 17.7256 14.8229C18.521 14.1074 19.4817 13.5236 20.6217 13.0883C21.4863 12.7578 22.1325 12.5227 23.4761 12.3883V10.2319H28.8504V12.5254C30.1939 12.7161 31.2554 13.0097 32.2711 13.4C33.5569 13.8978 34.8172 14.532 35.9075 15.2844L36.721 15.8265L32.8267 22.2017L31.956 21.5837C31.2896 21.1148 30.5641 20.7164 29.8413 20.4014C29.5121 20.2589 29.5222 20.134 28.8504 20.0231V21.9169C30.1939 22.2071 31.0021 22.5376 31.8862 22.9044C33.0128 23.3753 33.9842 23.945 34.7507 24.5987C35.5635 25.2899 36.0438 26.1202 36.4469 27.0648C36.846 28.0066 36.9111 29.0855 36.9111 30.2719V30.3458H36.9125Z" fill="white"/>
<path d="M33.7457 26.1141C33.1414 25.5958 32.3663 25.1352 31.4419 24.7465C30.468 24.3403 29.2827 23.9777 27.97 23.6709L27.1709 23.4896V17.4012L28.4216 17.6872C29.242 17.8779 30.1072 18.1639 30.9676 18.5372C31.4939 18.7688 32.0155 19.0354 32.5157 19.3362L34.2993 16.4135C33.565 15.9717 32.7826 15.5883 31.9595 15.2667C30.8602 14.8417 29.5102 14.547 28.1688 14.3912L27.1723 14.2885V12.2353H25.8383V14.2281L24.8944 14.2932C23.6898 14.3778 22.6039 14.6014 21.6787 14.9579C20.7769 15.3043 20.0105 15.7575 19.4062 16.3061C18.8092 16.8486 18.4811 17.4838 18.1776 18.1948C17.8641 18.9186 17.8341 19.729 17.8341 20.6085V20.6777C17.8341 21.6096 17.8547 22.4146 18.1522 23.0706C18.4504 23.7293 18.8146 24.2879 19.4009 24.778C20.0212 25.3011 20.7763 25.7529 21.7121 26.1222C22.7093 26.5203 23.8125 26.8796 25.1379 27.1924L25.8383 27.3744V33.5366L24.721 33.3299C23.5544 33.1244 22.4331 32.7732 21.3339 32.2858C20.4921 31.9118 19.6517 31.4438 18.7972 30.8892L16.8235 33.8341C17.8394 34.478 18.9506 35.0185 20.1293 35.4441C21.6541 35.9987 23.2456 36.3553 24.8984 36.5365L25.8383 36.6346V39.7647H27.1723V36.6883L28.1568 36.6037C29.2707 36.5009 30.3439 36.2747 31.2731 35.9329C32.1496 35.608 32.928 35.1682 33.547 34.629C34.1473 34.102 34.4894 33.4715 34.8223 32.7585C35.1438 32.0521 35.1765 31.231 35.1765 30.3253V30.2521C35.1765 29.3376 35.1711 28.5239 34.881 27.8343C34.6028 27.181 34.3154 26.6016 33.7457 26.1141ZM25.8369 23.4144L24.645 23.0686C23.5264 22.7631 22.9347 22.4334 22.4938 22.0306C21.9729 21.5485 21.8342 20.9026 21.8342 20.1573V20.0875C21.8342 19.3389 22.0383 18.6748 22.6132 18.1666C23.1435 17.7046 23.8005 17.4381 24.8737 17.3488L25.8362 17.2588L25.8369 23.4144ZM28.2862 33.5434L27.1716 33.6595V27.3959L28.455 27.7591C29.5322 28.0666 30.2472 28.4043 30.6928 28.8213C31.2164 29.3128 31.4899 29.9634 31.4899 30.7046C31.4899 31.6809 31.071 33.2506 28.2862 33.5434Z" fill="white"/>
<circle cx="26" cy="26" r="25" stroke="white" stroke-width="2"/>
</svg>
